<?xml version="1.0" encoding="utf-8"?>
<!-- Generator: Adobe Illustrator 25.4.1, SVG Export Plug-In . SVG Version: 6.00 Build 0)  -->
<svg version="1.1" xmlns="http://www.w3.org/2000/svg" xmlns:xlink="http://www.w3.org/1999/xlink" x="0px" y="0px"
	 viewBox="0 0 152.1 31.2" style="enable-background:new 0 0 152.1 31.2;" xml:space="preserve">
<style type="text/css">
	.st0{display:none;}
	.st1{display:inline;}
	.st2{fill:#009D95;}
	.st3{fill:#FFFFFF;}
	.st4{fill:#00A28D;}
	.st5{font-family:'Helvetica';}
	.st6{font-size:19.2473px;}
</style>
<g id="Layer_1" class="st0">
	<g id="圖層_2" class="st1">
		<g id="表頭尾">
			<path class="st2" d="M138,7.8c-1.6,2.2-3.6,4.1-5.9,5.6l-1.5-3.2c1.8-1.2,3.3-2.7,4.6-4.4C136.1,6.5,137.1,7.2,138,7.8"/>
			<rect x="139.1" y="6.5" class="st2" width="12.1" height="3.2"/>
			<path class="st2" d="M152.1,13.2v3.2h-3.2l-0.1,9c-0.2,0.7-0.6,1.3-1.3,1.7c-1.5,0.6-3.4,0.4-5,0.4l-1.3-3.3l3.9-0.1
				c0.2-0.1,0.3-0.2,0.4-0.4v-7.2l-7.5-0.1c0-0.8,0-1.6-0.1-2.3c-0.3,0.6-0.7,1.1-1.1,1.6v11.9h-3.3c0-2.6,0-5.2,0-7.8
				c-0.6,0.4-1.1,1-1.6,1.4l-1.5-3.5c2.1-1.7,3.9-3.8,5.2-6.1l2.3,1.7L152.1,13.2z"/>
			<path class="st2" d="M122.2,23.3c-0.3,0.1-0.1-0.2-0.4-0.2c-0.1-0.2-0.3-0.3-0.4-0.5s-0.3-0.2-0.3-0.5c0.1,0,0-0.3,0.2-0.2v-0.1
				c0.3-0.1,0.5-0.3,0.8-0.5c0.1-0.1,0.2-0.1,0.3-0.2s0.1,0,0.2,0V21c0-0.1,0.1,0,0.2,0v-0.1c0-0.1,0.1,0,0.1,0v-0.1
				c0-0.1,0.1,0,0.2,0v-0.1c0.1-0.1,0.1,0,0.2,0v-0.1c0,0,0.1,0,0.1,0v-0.1c0-0.1,0.1,0,0.1,0V20c-0.3-0.1-0.1-0.5-0.4-0.5
				c-0.1,0,0-0.2-0.1-0.1c-0.1-0.1-0.1-0.3-0.3-0.4s-0.1-0.3-0.2-0.3s-0.1-0.3-0.3-0.4c-0.1-0.3-0.3-0.5-0.5-0.7
				c-0.1,0.1-0.1,0.2-0.2,0.1s0,0.1,0,0.1c-0.4,0.2-0.7,0.6-1.1,0.8c-0.1,0.2-0.4,0.3-0.6,0.4s-0.3-0.2-0.4-0.3
				c-0.1-0.4-0.4-1,0-1.3h3.3V6.2h-10.4l-0.1,3.4c-1.5-0.9-2.6-2.2-3.4-3.7h-2.9c-1,1.9-2.4,3.5-4.1,4.8c0.4,1.1,0.8,2.4,1.2,3.5
				l0.8-0.5c0.2,0.2,0.1,0.5,0.1,0.7h1.7c0,0.3,0,0.6,0,0.8h-3.3v2.9l3.3,0.1v5.3l-0.6,0.3l-2.8,0.2l0.2,3.3
				c2.8-0.4,5.6-0.9,8.3-1.5c0.5,0.2,0.2,1,0.3,1.4c0.3,0.1,0.6,0.1,0.9,0c0.5,0.1,0.6-0.3,1.1-0.2c0.1-0.3,0.6,0,0.8-0.2
				c0.6-0.1,1.2-0.2,1.8-0.4c0.4,0,0.8-0.1,1.1-0.3c0.4-0.1,0.9,0,1.2-0.3v-2.1l0.2-0.1c0.2,0.1,0.3,0.3,0.3,0.5
				c0.2,0.1,0.2,0.3,0.4,0.4s0,0.2,0.1,0.2c0,0.3,0.4,0.2,0.4,0.6c0.3,0.1,0.3,0.4,0.6,0.5c0.1,0.3,0.3,0.3,0.5,0.5s0.4,0.2,0.4,0.5
				c0.2,0.1,0.5,0.3,0.7,0.5c0.2,0,0.1,0.1,0.4,0c0.2-0.2,0.3-0.4,0.4-0.7c0.1-0.1,0.2-0.3,0.3-0.4s0.2-0.2,0.2-0.4
				c0.2,0,0.2-0.2,0.2-0.3c0.2-0.2,0.3-0.5,0.5-0.7c0.1,0,0.1-0.2,0.2-0.3v-0.2c-0.5-0.3-0.9-0.6-1.3-1 M107.3,9.7
				c0.6,0.5,1.1,1,1.4,1.7h-2.6C106.5,10.8,106.9,10.2,107.3,9.7 M112.2,23.8h-0.7c0-0.4,0-0.9,0-1.2c-0.1,0-0.2-0.1-0.2-0.2
				c0.3-1.1,0.4-2.2,0.7-3.3c-0.8-0.3-1.6-0.5-2.4-0.6l-0.7,3.3l0.1,0.2l1.8,0.4c-0.7,0.2-1.4,0.4-2.1,0.4v-4.7h3.1v-3l-3-0.1v-0.7
				c0.7-0.1,1.4,0,2.1,0c0.1-0.4,0.1-0.8,0.1-1.2c0.2-0.2,0.3,0.1,0.5,0.1c0.3-0.5,0.5-1.1,0.8-1.5L112.2,23.8z M115.5,9.6l0.2-0.1
				h3.5c0.2,0.3,0.1,0.7,0.1,1.1l-0.1,0.1h-3.5C115.4,10.5,115.6,9.9,115.5,9.6 M115.4,23.2v-5.6c0.2-0.2,0.9-0.3,0.8,0.2
				c0.2,1.7,0.7,3.3,1.3,4.9C116.8,23,116.1,23.2,115.4,23.2 M115.6,14.5c-0.1-0.4-0.1-0.7,0-1.1h3.6c0.2,0.2,0.1,0.7,0.1,1
				C118.1,14.6,116.9,14.6,115.6,14.5"/>
			<path class="st2" d="M102.9,23.4c0.5-0.1,1.1-0.2,1.6-0.3c0.2-0.1,0.5-0.1,0.6-0.3c0-1.4-0.3-2.6-0.4-3.9c-0.3-0.2-0.7,0-1.1,0
				s-0.9,0.2-1.3,0.3l0.2,4.1l0.1,0.1C102.7,23.4,102.9,23.4,102.9,23.4"/>
			<path class="st2" d="M30.5,9.9c2.3,6,0.7,12.9-4.1,17.2c-4.3,3.8-10.2,5.1-15.7,3.3c-8.2-2.7-12.6-11.5-10-19.6
				c1.2-3.8,3.9-7,7.5-8.9C13.6-1,20-0.6,25,2.9C27.5,4.6,29.4,7.1,30.5,9.9"/>
			<path class="st3" d="M15,7.3c0.6-0.2,1.3-0.6,1.8-0.2c0.4,0.6,1.5,0.8,1.2,1.6c0.6,0.7,1.2,1.4,1.9,2c0.2,0,0.2-0.1,0.3-0.2
				L20,10.4c0.2-0.2,0.8,0.1,1.1-0.1c0.3,0,0.5,0.1,0.7,0.3c0.1,0.3,0.3,0.6,0.4,0.9l0.1-0.1c0.1,0.3,0.3,0.6,0.4,0.8
				c1.2,0.4,1.7,1.8,2.8,2.4c1.3,1,2.6,1.8,4.1,2.4c-0.1,0.2,0.2,0.2,0.3,0.3l0,0c-0.2-0.1-0.4-0.2-0.7-0.1c0.2,0.3,0.7,0.2,0.8,0.5
				h-0.5c0,0.1,0.1,0.1,0.2,0.1c-0.3-0.1-0.5,0.1-0.7-0.2c-1-0.5-2-1.1-3-1.7l0,0c0.8,0.7,1.7,1.3,2.6,1.7c0.3,0.2,0.7,0.3,0.9,0.5
				c-0.1,0-0.3,0-0.3,0.2l-0.2-0.1c-0.1,0,0,0.1,0,0.1l0.2,0.1c-1.2-0.5-2.3-1.2-3.4-2c-0.5-0.3-1-0.6-1.5-1c-0.1,0-0.2,0-0.2,0.1
				c0.6,0.4,1.1,0.7,1.7,1.1c-1.1-0.5-2.2-1.3-3-2.2c-0.4-0.4-0.9-1.1-1.5-1c-0.2,0.1-0.6,0.1-0.8,0.2s-0.4-0.2-0.6-0.1
				c-0.2,0.4-0.7,0.1-0.8,0.5c-0.3,0.1-0.9,0-1,0.4v0.2c-0.7,0.3-1.5,0.2-2,0.8c-0.1,0.1-0.4,0-0.5,0.1c0-0.1,0-0.1-0.1-0.1
				s-0.3,0.1-0.4,0.1c-0.1-0.2,0.1-0.2,0.1-0.3c-0.3-0.1-0.4,0.3-0.6,0.4c0-0.3,0.3-0.3,0.4-0.5c-0.2-0.1-0.3,0.1-0.4,0.1
				c0.1,0,0.2-0.2,0-0.2c0.2-0.3,0.5-0.2,0.6-0.5H15l0.8-0.6c-0.1,0-0.3-0.3-0.5,0c0,0,0.1-0.1,0-0.1S15,14,14.9,14
				c0,0,0-0.1-0.1-0.1h-0.1c0.1-0.1,0.2-0.2,0.4-0.3l0,0.1c0.5-0.3,1-0.6,1.5-0.9l0.1-0.1c-0.1-0.1-0.3-0.2-0.5,0c0,0,0,0,0,0
				c0.4,0,0-0.5,0.5-0.6c0.1-0.3,0.3-0.6,0.6-0.8c-0.4-0.4-0.6-1.1-1.1-1.3c0-0.3-0.3,0-0.4-0.3c-0.6,0-1.3,0.3-1.7-0.3
				c-0.3-0.1-0.7-0.1-1,0c-0.2,0.2-0.4,0.5-0.5,0.8c-0.2,0.2-0.4,0.5-0.5,0.8c-0.3,0.4-0.7,0.8-1.2,1l0,0c-0.4,0.5-1.1,0.3-1.6,0.8
				v-0.1c-0.1,0-0.3,0-0.3,0.2c0,0,0,0,0,0v0.1c-0.2-0.1-0.4,0.2-0.5,0.3c-0.6,0.6-1.5,0.6-2.1,1.1c-0.1,0,0,0,0,0
				c-1.1,0.2-1.6,1-2.3,1.8c-0.2,0.3-0.5,0.6-0.8,0.8c0.1,0.3-0.3,0.4-0.5,0.5c0.1-0.2,0.4-0.4,0.5-0.7c-0.3,0.1-0.3,0.4-0.6,0.5
				c-0.2-0.1,0.2-0.2,0.1-0.4l-0.4,0.3l0.4-0.5c-0.2,0-0.4,0.4-0.6,0.4c-0.1,0.1-0.2,0.1-0.3,0.1l0,0c0.2-0.2,0.4-0.3,0.5-0.5
				c-0.2-0.1-0.5,0.2-0.6,0.1s0-0.2-0.2-0.1c0.2-0.1,0.3-0.2,0.4-0.4c-0.1,0-0.3,0.1-0.4,0.1c0-0.2,0.4-0.3,0.3-0.5
				c-0.4-0.1-0.4,0.4-0.7,0.5c0.3-0.5,0.9-0.8,1.2-1.3l0,0c0.7-0.7,1.5-1.3,2.4-1.7c0.7-0.4,1.6-0.6,2.1-1.2
				c0.2-0.2,0.4-0.5,0.5-0.8c0.1,0,0.1-0.1,0.2-0.1c0.5-0.3,1-0.5,1.6-0.5c0.3-0.3,0.8-0.1,1-0.5c0.7-0.8,0.9-1.8,1.5-2.6
				c0.2-0.3,0.4-0.7,0.8-0.8C13.2,6.9,14.1,7.1,15,7.3"/>
			<polygon class="st3" points="22.3,11.1 22.2,10.7 22.3,11.1 			"/>
			<path class="st3" d="M22.5,11.8c-0.1,0-0.1-0.1-0.2-0.2C22.4,11.6,22.5,11.7,22.5,11.8"/>
			<path class="st4" d="M6.9,12c-0.1-0.2,0.2-0.2,0.3-0.4C7.2,11.7,7.1,11.9,6.9,12"/>
			<polygon class="st4" points="10.1,12.1 10.1,12.1 10.2,12.1 			"/>
			<path class="st4" d="M9.4,12.3c-0.1,0.1-0.1,0.2-0.2,0.1S9.3,12.2,9.4,12.3"/>
			<path class="st3" d="M15.7,12.8c-0.2,0.1-0.5,0.2-0.5,0.4c-0.3,0-0.5,0.3-0.7,0.3c0-0.3,0.4-0.1,0.5-0.4l0.3-0.2v0.1
				c0.1-0.1,0.4,0,0.3-0.3L15.7,12.8z"/>
			<path class="st3" d="M14.6,13c-0.1,0.1-0.2,0.2-0.4,0.3C14.3,13.1,14.4,13.1,14.6,13"/>
			<path class="st4" d="M7.9,13.4C8,13.5,7.8,13.4,7.9,13.4C7.8,13.6,7.9,13.4,7.9,13.4"/>
			<rect x="15.2" y="13.6" class="st3" width="0.1" height="0.1"/>
			<path class="st3" d="M15.1,13.8c0,0.1-0.1,0.1-0.1,0.1h-0.1C14.9,13.8,15,13.8,15.1,13.8C15.1,13.8,15,13.8,15.1,13.8"/>
			<path class="st3" d="M15.7,14.4c0,0.1-0.2,0.1-0.3,0.2s0-0.1,0-0.1S15.6,14.4,15.7,14.4"/>
			<path class="st4" d="M15.8,14.6c0,0.1-0.3,0.1-0.4,0.2c0-0.1,0.2-0.2,0.3-0.3S15.8,14.6,15.8,14.6"/>
			<path class="st4" d="M23.6,15c0.1,0.1,0.2,0.2,0.3,0.3l-0.1,0.1c-0.2-0.2-0.4-0.5-0.5-0.8C23.4,14.8,23.5,14.9,23.6,15"/>
			<path class="st3" d="M28.3,16.7c-0.1,0.1-0.2-0.1-0.3-0.1L28.3,16.7z"/>
			<path class="st3" d="M29.2,17.2C29,17,28.6,17,28.4,16.8C28.7,16.9,29,17,29.2,17.2"/>
			<polygon class="st3" points="26.4,17.1 26,16.9 26.2,17 			"/>
			<polygon class="st3" points="29.1,18.1 29.2,18.1 29.3,18.1 			"/>
			<path class="st3" d="M29,18.3h-0.1v-0.1C28.9,18.2,29,18.2,29,18.3"/>
			<polygon class="st2" points="85.8,22.4 90.5,22.4 90.5,8.5 93.9,8.5 93.9,27 90.5,27 90.5,25.8 77.4,25.7 77.4,26.9 73.9,26.9 
				73.9,8.4 77.4,8.4 77.4,22.4 82.2,22.4 82.2,5.4 85.8,5.4 			"/>
			<polygon class="st2" points="64.6,9.2 56.8,9.2 56.8,9.3 56.8,14 64,14.1 64,17.4 56.7,17.4 56.7,23.4 65.5,23.4 65.5,26.8 
				44.3,26.8 44.3,23.4 53.1,23.4 53.1,17.4 45.9,17.4 45.9,14 53.1,14 53.1,9.2 45.4,9.1 45.4,5.8 64.6,5.8 			"/>
			<path class="st2" d="M62.4,19.3c0.3,0.5,0.4,1.1,0.3,1.7c-0.2,0.7-0.7,1.2-1.4,1.4c-0.8,0.2-1.7,0-2.3-0.7
				c-0.4-0.4-0.5-1-0.5-1.5c0.1-0.8,0.7-1.5,1.5-1.8C60.9,18.1,61.9,18.5,62.4,19.3"/>
		</g>
	</g>
</g>
<g id="Layer_2">
	<text transform="matrix(1 0 0 1 4.9865 22.4393)" class="st5 st6">Rong’s  Portfolio</text>
</g>
</svg>
